<svg id="Layer_2" data-name="Layer 2" xmlns="http://www.w3.org/2000/svg" viewBox="0 0 114 59"><defs><style>.cls-1{fill:#fff;}</style></defs><title>Artboard 7 copy 3</title><rect x="0.95" y="1" width="110" height="55" rx="6" ry="6"/><path class="cls-1" d="M46.44,37.54l1.42-2.82h7.82l1.42,2.82h3.83L51.78,19.38,42.66,37.54Zm3.1-6.14L51.78,27,54,31.4Z"/><polygon class="cls-1" points="45.89 19.46 31.5 19.46 31.5 22.78 36.86 22.78 36.86 37.54 40.54 37.54 40.54 22.78 45.89 22.78 45.89 19.46"/><path class="cls-1" d="M74.9,25a5.19,5.19,0,0,0-1.67-4,6.72,6.72,0,0,0-4.63-1.57H61.8V37.54h3.67V30.95h2.62l3.8,6.59H76.1l-4.3-7.48A5.34,5.34,0,0,0,74.9,25Zm-6.76,2.42H65.47V22.78h2.67c2,0,3.06.8,3.06,2.31S70.06,27.41,68.15,27.41Z"/><polygon class="cls-1" points="92.62 19.46 77.69 19.46 77.69 22.78 86.23 22.78 76.95 37.54 92.43 37.54 92.43 34.22 83.35 34.22 92.62 19.46"/><path class="cls-1" d="M25,26.83c-3-.7-4-1.18-4-2.55,0-1.14,1.05-1.86,2.62-1.86a8.76,8.76,0,0,1,5.12,2.14l1.54-3.11a10.24,10.24,0,0,0-6.6-2.3c-3.7,0-6.29,2.22-6.29,5.38,0,3.46,2.23,4.65,6.08,5.58,3.22.74,3.79,1.38,3.79,2.45,0,1.26-1.13,2-2.87,2-2.15,0-3.92-.82-5.94-2.71L16.94,35.1a11.2,11.2,0,0,0,7.37,2.75c4,0,6.57-2.15,6.57-5.59C30.88,29.43,29.18,27.85,25,26.83Z"/></svg>